<svg width="20" height="40" viewBox="0 0 20 40" fill="none" xmlns="http://www.w3.org/2000/svg">
<g clip-path="url(#clip0_23_10)">
<path d="M18.7129 11.7586C18.3956 11.2743 18.0475 10.8109 17.6706 10.3712C17.0215 9.58765 16.2794 8.88586 15.4606 8.28135C15.4406 8.26608 15.4206 8.25257 15.4017 8.23906C14.782 7.79009 14.1043 7.42693 13.387 7.15947V16.6209C13.3959 16.6866 13.4053 16.7536 13.4117 16.8217C13.4565 17.099 13.4945 17.3361 13.5259 17.533C13.8663 18.5261 14.891 19.0224 16.6 19.022C18.8047 19.022 19.9068 18.1071 19.9065 16.2772C19.9188 14.6918 19.5068 13.1317 18.7129 11.7586ZM16.5953 20.1386C15.9701 20.1476 15.3468 20.0701 14.7429 19.9084C16.3482 20.6772 17.7241 21.842 18.85 23.388L18.8565 23.3979C19.2953 24.0097 19.6767 24.6605 19.9959 25.3421V18.9985C19.347 19.6505 18.2929 20.1386 16.5953 20.1386ZM17.9482 24.0441C16.458 21.9984 14.5168 20.7117 12.1247 20.1838C11.4529 20.1161 10.8527 20.0544 10.3241 19.9988H9.28469C9.21539 19.9985 9.14641 19.9894 9.07939 19.9718C6.73155 20.3113 4.7588 21.1963 3.16116 22.6267C2.97253 22.7959 2.79253 22.9696 2.62116 23.1477C3.67998 24.3291 4.78586 25.1961 5.93881 25.7486C6.54196 26.041 7.18215 26.25 7.84175 26.37C8.54763 26.4315 9.20194 26.4848 9.80469 26.5298C10.1823 26.558 10.5412 26.5815 10.8788 26.6026H13.4776V30.696C13.4776 31.3163 13.0684 31.9131 12.25 32.4863C12.06 32.6191 11.8759 32.7372 11.6959 32.8388C11.3849 33.0217 11.0516 33.1636 10.7041 33.2611H10.6965C10.4946 33.3154 10.2867 33.3438 10.0776 33.3457C10.0682 33.3463 10.0588 33.3463 10.0494 33.3457C10.0431 33.3463 10.0368 33.3463 10.0306 33.3457C10.0212 33.3462 10.0117 33.3462 10.0023 33.3457C9.99313 33.3463 9.98389 33.3463 9.97469 33.3457C9.9735 33.3462 9.97219 33.3465 9.97086 33.3465C9.96954 33.3465 9.96823 33.3462 9.96704 33.3457C9.94941 33.3468 9.93173 33.3468 9.9141 33.3457C9.82351 33.3416 9.7341 33.3333 9.64586 33.3216C9.64334 33.3221 9.64074 33.3221 9.63822 33.3216C9.08057 33.2397 8.51312 32.9852 7.93586 32.558C7.81294 32.4666 7.69512 32.3686 7.58292 32.2643C7.08135 31.7995 6.77959 31.2611 6.67763 30.649C6.55331 29.9982 6.44449 29.4479 6.35116 28.9979C6.25783 28.548 5.79233 28.1682 4.95469 27.8584C4.34449 27.645 3.809 27.5368 3.34822 27.5336H3.32351C1.16077 27.5336 0.059393 28.4147 0.019393 30.1768C0.019393 30.2103 0.019393 30.2438 0.019393 30.2784C0.019393 32.8198 1.00547 35.0675 2.97763 37.0214C3.22351 37.2666 3.47567 37.4954 3.7341 37.7081C3.7341 37.7081 3.7341 37.7081 3.73763 37.7081C5.28704 38.9897 7.04998 39.7216 9.02645 39.9037C9.21175 39.9213 9.39822 39.9336 9.58881 39.9419C9.65234 39.9419 9.71469 39.946 9.7788 39.9471C9.83233 39.9471 9.88586 39.9471 9.93939 39.9471H10.0335C10.057 39.9471 10.0806 39.9471 10.1041 39.9471H10.1741H10.1835C10.2788 39.9471 10.3747 39.9424 10.4712 39.9371L10.6523 39.926C10.6556 39.9254 10.659 39.9254 10.6623 39.926C10.697 39.926 10.7317 39.9213 10.7659 39.9172C11.0129 39.8937 11.2623 39.8584 11.5153 39.8144C11.5847 39.8021 11.6535 39.7885 11.7229 39.7745C11.9323 39.7314 12.1425 39.6811 12.3535 39.6235C12.6365 39.5454 12.9206 39.4549 13.2088 39.3498C13.5755 39.2159 13.9463 39.0592 14.3212 38.8799C14.4282 38.83 14.537 38.7759 14.6441 38.7213C14.7512 38.6667 14.8612 38.6109 14.9694 38.5527C14.9982 38.5386 15.0282 38.5239 15.0541 38.5081C15.6746 38.1175 16.2537 37.6649 16.7823 37.1571C18.8608 35.2035 19.9 32.8006 19.9 29.9483C19.9023 27.8416 19.2517 25.8735 17.9482 24.0441ZM18.6 0.511601C17.8859 0.170925 17.2496 0.000391581 16.6912 0C15.962 0.00380723 15.244 0.179074 14.5953 0.511601C13.7882 0.914537 13.3847 1.42614 13.3847 2.0464V5.98179C14.3222 6.28284 15.207 6.72814 16.007 7.30162C16.0247 7.31278 16.0417 7.32511 16.0582 7.33745C16.6573 7.74463 17.2179 8.20568 17.7329 8.71483C18.4893 9.44937 19.1423 10.283 19.6741 11.193C19.7917 11.3715 19.9002 11.5497 19.9994 11.7275V1.99941C19.9982 1.41087 19.5317 0.914929 18.6 0.511601ZM3.13763 9.39442C1.05567 11.3175 0.0152761 13.6121 0.0164526 16.2784C0.0164526 18.1079 1.11861 19.0224 3.32292 19.022C4.87586 19.022 5.90077 18.5261 6.39763 17.5342C6.45528 17.2805 6.5043 17.0465 6.54469 16.8323C6.57939 16.649 6.60763 16.4799 6.62998 16.3254V7.19413C5.37586 7.65658 4.21175 8.39001 3.13763 9.39442ZM5.23351 0.511601C4.51822 0.170925 3.88135 0.000391581 3.32292 0C2.73469 0 2.08273 0.170533 1.36704 0.511601C0.46508 0.914537 0.0140991 1.42614 0.0140991 2.0464V11.5354C0.554678 10.5162 1.24641 9.58452 2.06586 8.77181C3.40704 7.42085 4.93528 6.48106 6.63234 5.96535V1.99941C6.63077 1.41087 6.16449 0.914929 5.23351 0.511601Z" fill="white"/>
<path d="M5.05706 26.6191L5.03353 26.6091C3.79176 26.0911 2.69059 25.284 1.74235 24.2009C1.11107 25.0824 0.646018 26.0715 0.369999 27.1195C1.02176 26.6984 1.94059 26.4147 3.22941 26.4147C3.97979 26.4193 4.72178 26.5726 5.41235 26.8658C6.30235 27.2041 6.89823 27.6817 7.18882 28.2902C7.27588 28.1416 7.37353 27.99 7.48294 27.8338C7.59639 27.669 7.72079 27.512 7.85529 27.3639C6.76059 27.1671 5.82059 26.9175 5.05706 26.6191ZM17.9482 24.0441C16.458 21.9984 14.5169 20.7117 12.1247 20.1839C11.4529 20.1161 10.8527 20.0544 10.3241 19.9988H9.2847C9.21541 19.9985 9.14643 19.9894 9.07941 19.9718C6.73157 20.3113 4.75882 21.1963 3.16117 22.6267C2.97255 22.7959 2.79255 22.9696 2.62117 23.1477C3.68 24.3291 4.78588 25.1961 5.93882 25.7486C6.54198 26.041 7.18216 26.25 7.84176 26.3701C8.54765 26.4315 9.20196 26.4848 9.8047 26.5298C10.1824 26.558 10.5412 26.5815 10.8788 26.6027H13.4776V30.696C13.4776 31.3163 13.0684 31.9131 12.25 32.4864C12.06 32.6191 11.8759 32.7372 11.6959 32.8388C11.3849 33.0217 11.0516 33.1637 10.7041 33.2611H10.6965C10.4946 33.3154 10.2867 33.3438 10.0776 33.3457C10.0682 33.3463 10.0588 33.3463 10.0494 33.3457C10.0341 33.3457 10.0182 33.3457 10.0024 33.3457C9.99315 33.3463 9.98391 33.3463 9.9747 33.3457C9.97351 33.3463 9.9722 33.3465 9.97088 33.3465C9.96956 33.3465 9.96825 33.3463 9.96706 33.3457C9.94943 33.3469 9.93174 33.3469 9.91412 33.3457C9.82353 33.3416 9.73411 33.3333 9.64588 33.3216C9.64336 33.3222 9.64075 33.3222 9.63823 33.3216C9.08059 33.2398 8.51314 32.9852 7.93588 32.558C7.81296 32.4666 7.69513 32.3686 7.58294 32.2643C7.08137 31.7995 6.77961 31.2611 6.67764 30.6491C6.55333 29.9982 6.44451 29.4479 6.35117 28.998C6.25784 28.548 5.79235 28.1682 4.9547 27.8585C4.34451 27.645 3.80902 27.5368 3.34823 27.5336H3.32353C1.16078 27.5336 0.0594092 28.4147 0.0194092 30.1768C0.0194092 30.2103 0.0194092 30.2438 0.0194092 30.2784C0.0194092 32.8198 1.00549 35.0675 2.97764 37.0215C3.22353 37.2666 3.47568 37.4955 3.73411 37.7081C3.73411 37.7081 3.73412 37.7081 3.73765 37.7081C5.26118 38.9917 7.02411 39.7236 9.02647 39.9037C9.21176 39.9213 9.39823 39.9336 9.58882 39.9419C9.65235 39.9419 9.7147 39.946 9.77882 39.9471C9.83235 39.9471 9.88588 39.9471 9.93941 39.9471H10.0335C10.0571 39.9471 10.0806 39.9471 10.1041 39.9471H10.1741H10.1835C10.2788 39.9471 10.3747 39.9424 10.4712 39.9372L10.6524 39.926C10.6557 39.9254 10.659 39.9254 10.6624 39.926C10.6971 39.926 10.7318 39.9213 10.7659 39.9172C11.0129 39.8937 11.2624 39.8585 11.5153 39.8144C11.5847 39.8021 11.6535 39.7886 11.7229 39.7745C11.9324 39.7314 12.1425 39.6811 12.3535 39.6235C12.6365 39.5454 12.9206 39.4549 13.2088 39.3498C13.5755 39.2159 13.9463 39.0592 14.3212 38.8799C14.4282 38.83 14.5371 38.7759 14.6441 38.7213C14.7512 38.6667 14.8612 38.6109 14.9694 38.5527C14.9982 38.5386 15.0282 38.5239 15.0541 38.5081C15.6747 38.1176 16.2537 37.6649 16.7824 37.1571C18.8608 35.2035 19.9 32.8006 19.9 29.9483C19.9024 27.8416 19.2518 25.8735 17.9482 24.0441ZM16.5953 20.1386C15.9702 20.1476 15.3468 20.0701 14.7429 19.9084C16.3482 20.6772 17.7241 21.842 18.85 23.388L18.8565 23.398C19.2953 24.0097 19.6767 24.6605 19.9959 25.3422V18.9985C19.3471 19.6505 18.2929 20.1386 16.5953 20.1386ZM18.7129 11.7586C18.3957 11.2743 18.0475 10.8109 17.6706 10.3712C17.0216 9.58765 16.2794 8.88587 15.4606 8.28136C15.4406 8.26609 15.4206 8.25258 15.4018 8.23907C14.782 7.7901 14.1043 7.42694 13.3871 7.15948C13.0083 7.02046 12.6187 6.91261 12.2223 6.83701C11.9765 6.78944 11.7418 6.75243 11.51 6.71954C11.4824 6.71484 11.4512 6.71014 11.4253 6.70721C11.3435 6.69487 11.2618 6.68488 11.1794 6.6749C11.0971 6.66491 11.0171 6.65552 10.9359 6.64906C10.6206 6.61793 10.3194 6.60324 10.0335 6.60324H9.93941C9.89588 6.60324 9.85353 6.60324 9.81 6.60324C8.72576 6.62062 7.65209 6.81915 6.63353 7.19061C5.37862 7.65268 4.21451 8.38611 3.14117 9.39091C1.05921 11.314 0.0188215 13.6086 0.019998 16.2749C0.019998 18.1044 1.12215 19.0189 3.32647 19.0185C4.87941 19.0185 5.90431 18.5226 6.40118 17.5307C6.45882 17.277 6.50784 17.043 6.54823 16.8288C6.58294 16.6455 6.61117 16.4764 6.63353 16.3219C6.65588 16.1674 6.67059 16.0282 6.68059 15.9019C6.8049 15.1579 7.20098 14.5224 7.86882 13.9953C8.52843 13.4741 9.24117 13.2112 10.0071 13.2065C10.0161 13.2059 10.0251 13.2059 10.0341 13.2065C11.3925 13.2065 12.3486 13.7743 12.9023 14.9098C13.0679 15.2555 13.1929 15.6192 13.2747 15.9935C13.3194 16.1909 13.3576 16.3988 13.3876 16.6162C13.3965 16.6819 13.4059 16.7489 13.4124 16.817C13.4571 17.0943 13.4951 17.3314 13.5265 17.5283C13.8669 18.5214 14.8916 19.0177 16.6006 19.0173C18.8053 19.0173 19.9074 18.1024 19.9071 16.2725C19.9184 14.6886 19.5062 13.1303 18.7129 11.7586Z" fill="white"/>
<path d="M18.7129 11.7586C18.2289 10.9333 17.6353 10.1771 16.9482 9.51073C16.4898 9.05754 15.9917 8.64611 15.46 8.28136C15.44 8.26609 15.42 8.25258 15.4012 8.23907C14.7815 7.7901 14.1037 7.42694 13.3865 7.15948C13.0077 7.02046 12.6182 6.91261 12.2218 6.83701C11.9759 6.78944 11.7412 6.75243 11.5094 6.71954C11.4818 6.71484 11.4506 6.71014 11.4247 6.70721C11.3429 6.69487 11.2612 6.68488 11.1788 6.6749C11.0965 6.66491 11.0165 6.65552 10.9353 6.64906C10.62 6.61793 10.3188 6.60324 10.0329 6.60324H9.93882C9.89529 6.60324 9.85294 6.60324 9.80941 6.60324C8.72518 6.62062 7.65151 6.81915 6.63294 7.19061C5.37804 7.65268 4.21392 8.38611 3.14059 9.39091C1.05863 11.314 0.0182337 13.6086 0.0194102 16.2749C0.0194102 18.1044 1.12157 19.0189 3.32588 19.0185C4.87882 19.0185 5.90372 18.5226 6.40059 17.5307C6.45823 17.277 6.50725 17.043 6.54765 16.8288C6.58235 16.6455 6.61059 16.4764 6.63294 16.3219C6.65529 16.1674 6.67 16.0282 6.68 15.9019C6.80431 15.1579 7.20039 14.5224 7.86824 13.9953C8.52784 13.4741 9.24059 13.2112 10.0065 13.2065C10.0155 13.2059 10.0245 13.2059 10.0335 13.2065C11.392 13.2065 12.348 13.7743 12.9018 14.9098C13.0673 15.2555 13.1923 15.6192 13.2741 15.9935C13.3188 16.1909 13.3571 16.3988 13.3871 16.6162C13.3959 16.6819 13.4053 16.7489 13.4118 16.817C13.4565 17.0943 13.4945 17.3314 13.5259 17.5283C13.8663 18.5214 14.891 19.0177 16.6 19.0173C18.8047 19.0173 19.9069 18.1024 19.9065 16.2725C19.918 14.6887 19.506 13.1304 18.7129 11.7586ZM17.9482 24.0441C16.458 21.9984 14.5169 20.7117 12.1247 20.1839C11.4529 20.1161 10.8527 20.0544 10.3241 19.9988H9.28471C9.21541 19.9985 9.14643 19.9894 9.07941 19.9718C6.73157 20.3113 4.75882 21.1963 3.16118 22.6267C2.97255 22.7959 2.79255 22.9696 2.62118 23.1477C3.68 24.3291 4.78588 25.1961 5.93882 25.7486C6.54198 26.041 7.18216 26.25 7.84176 26.3701C8.54765 26.4315 9.20196 26.4848 9.8047 26.5298C10.1824 26.558 10.5412 26.5815 10.8788 26.6027H13.4776V30.696C13.4776 31.3163 13.0684 31.9131 12.25 32.4864C12.06 32.6191 11.8759 32.7372 11.6959 32.8388C11.3849 33.0217 11.0516 33.1637 10.7041 33.2611H10.6965C10.4946 33.3154 10.2867 33.3438 10.0776 33.3457C10.0682 33.3463 10.0588 33.3463 10.0494 33.3457C10.0341 33.3457 10.0182 33.3457 10.0024 33.3457C9.99315 33.3463 9.98391 33.3463 9.97471 33.3457C9.97351 33.3463 9.97221 33.3465 9.97088 33.3465C9.96956 33.3465 9.96825 33.3463 9.96706 33.3457C9.94943 33.3469 9.93174 33.3469 9.91412 33.3457C9.82353 33.3416 9.73412 33.3333 9.64588 33.3216C9.64336 33.3222 9.64075 33.3222 9.63824 33.3216C9.08059 33.2398 8.51314 32.9852 7.93588 32.558C7.81296 32.4666 7.69514 32.3686 7.58294 32.2643C7.08137 31.7995 6.77961 31.2611 6.67765 30.6491C6.55333 29.9982 6.44451 29.4479 6.35118 28.998C6.25784 28.548 5.79235 28.1682 4.9547 27.8585C4.34451 27.645 3.80902 27.5368 3.34823 27.5336H3.32353C1.16078 27.5336 0.0594102 28.4147 0.0194102 30.1768C0.0194102 30.2103 0.0194102 30.2438 0.0194102 30.2784C0.0194102 32.8198 1.00549 35.0675 2.97765 37.0215C3.22353 37.2666 3.47568 37.4955 3.73412 37.7081C3.73412 37.7081 3.73412 37.7081 3.73765 37.7081C5.26118 38.9917 7.02412 39.7236 9.02647 39.9037C9.21176 39.9213 9.39824 39.9336 9.58882 39.9419C9.65235 39.9419 9.7147 39.946 9.77882 39.9471C9.83235 39.9471 9.88588 39.9471 9.93941 39.9471H10.0335C10.0571 39.9471 10.0806 39.9471 10.1041 39.9471H10.1741H10.1835C10.2788 39.9471 10.3747 39.9424 10.4712 39.9372L10.6524 39.926C10.6557 39.9254 10.659 39.9254 10.6624 39.926C10.6971 39.926 10.7318 39.9213 10.7659 39.9172C11.0129 39.8937 11.2624 39.8585 11.5153 39.8144C11.5847 39.8021 11.6535 39.7886 11.7229 39.7745C11.9324 39.7314 12.1425 39.6811 12.3535 39.6235C12.6365 39.5454 12.9206 39.4549 13.2088 39.3498C13.5755 39.2159 13.9463 39.0592 14.3212 38.8799C14.4282 38.83 14.5371 38.7759 14.6441 38.7213C14.7512 38.6667 14.8612 38.6109 14.9694 38.5527C14.9982 38.5386 15.0282 38.5239 15.0541 38.5081C15.6747 38.1176 16.2537 37.6649 16.7824 37.1571C18.8608 35.2035 19.9 32.8006 19.9 29.9483C19.9024 27.8416 19.2518 25.8735 17.9482 24.0441Z" fill="white"/>
<path d="M7.80822 19.0725C7.74645 19.0855 7.68645 19.1002 7.62586 19.1148C5.61469 19.5959 3.86998 20.4922 2.4141 21.795C2.23763 21.9542 2.06469 22.1187 1.89998 22.2861C1.46727 21.7362 1.08847 21.1461 0.768804 20.5239C0.56993 20.1334 0.405389 19.7264 0.277039 19.3075C0.299392 19.3239 0.32292 19.341 0.34645 19.3562C1.00351 19.822 1.95469 20.1392 3.32292 20.1392C5.43292 20.1392 6.54292 19.321 7.12645 18.4881C7.15292 18.4511 7.17763 18.4141 7.20116 18.3777C7.3241 18.5316 7.46821 18.7013 7.63174 18.8834C7.69057 18.9486 7.7488 19.0138 7.80822 19.0725Z" fill="white"/>
</g>
<defs>
<clipPath id="clip0_23_10">
<rect width="20" height="40" fill="white"/>
</clipPath>
</defs>
</svg>
