<svg width="23" height="44" viewBox="0 0 23 44" fill="none" xmlns="http://www.w3.org/2000/svg">
<path d="M21.049 12.7363C20.7038 12.2117 20.3249 11.7098 19.9149 11.2336C19.2087 10.3849 18.4012 9.62473 17.5103 8.96995C17.4885 8.95341 17.4668 8.93878 17.4463 8.92414C16.772 8.43784 16.0346 8.04448 15.2542 7.75479V18.0029C15.2638 18.0741 15.274 18.1467 15.2811 18.2205C15.3297 18.5208 15.3711 18.7776 15.4052 18.9909C15.7756 20.0665 16.8905 20.6041 18.75 20.6037C21.1488 20.6037 22.348 19.6127 22.3476 17.6307C22.3611 15.9134 21.9127 14.2237 21.049 12.7363ZM18.7449 21.8132C18.0647 21.8229 17.3865 21.7389 16.7294 21.5638C18.4761 22.3966 19.9731 23.6582 21.1981 25.3327L21.2051 25.3435C21.6826 26.0061 22.0976 26.711 22.4449 27.4494V20.5783C21.7389 21.2845 20.592 21.8132 18.7449 21.8132ZM20.2169 26.0433C18.5955 23.8276 16.4835 22.4339 13.8807 21.8621C13.1498 21.7888 12.4967 21.722 11.9216 21.6617H10.7906C10.7152 21.6614 10.6402 21.6515 10.5673 21.6325C8.0127 22.0002 5.86627 22.9588 4.12795 24.5082C3.92272 24.6914 3.72687 24.8795 3.54041 25.0725C4.69246 26.3521 5.89571 27.2912 7.15016 27.8896C7.80643 28.2063 8.50297 28.4327 9.22065 28.5627C9.98868 28.6293 10.7006 28.687 11.3564 28.7358C11.7673 28.7663 12.1577 28.7918 12.5251 28.8147H15.3527V33.2484C15.3527 33.9203 14.9075 34.5667 14.017 35.1876C13.8103 35.3314 13.61 35.4593 13.4141 35.5693C13.0758 35.7675 12.7131 35.9212 12.335 36.0268H12.3267C12.1071 36.0856 11.8808 36.1163 11.6534 36.1184C11.6432 36.119 11.6329 36.119 11.6227 36.1184C11.6159 36.119 11.609 36.119 11.6022 36.1184C11.592 36.119 11.5817 36.119 11.5715 36.1184C11.5615 36.119 11.5514 36.119 11.5414 36.1184C11.5401 36.119 11.5387 36.1193 11.5372 36.1193C11.5358 36.1193 11.5344 36.119 11.5331 36.1184C11.5139 36.1197 11.4946 36.1197 11.4755 36.1184C11.3769 36.1139 11.2796 36.105 11.1836 36.0923C11.1809 36.0929 11.178 36.0929 11.1753 36.0923C10.5685 36.0037 9.95113 35.728 9.32305 35.2652C9.18931 35.1662 9.06111 35.06 8.93904 34.9471C8.39331 34.4437 8.06497 33.8605 7.95403 33.1975C7.81877 32.4926 7.70037 31.8965 7.59882 31.4091C7.49727 30.9218 6.99079 30.5104 6.0794 30.1749C5.41547 29.9437 4.83284 29.8265 4.33148 29.8231H4.3046C1.95144 29.8231 0.753093 30.7774 0.709572 32.686C0.709572 32.7223 0.709572 32.7585 0.709572 32.7961C0.709572 35.5488 1.78247 37.9833 3.92827 40.0998C4.1958 40.3653 4.47015 40.6132 4.75134 40.8435C4.75134 40.8435 4.75134 40.8435 4.75518 40.8435C6.44101 42.2317 8.35917 43.0245 10.5097 43.2217C10.7113 43.2408 10.9142 43.2541 11.1215 43.263C11.1907 43.263 11.2585 43.2675 11.3283 43.2688C11.3865 43.2688 11.4447 43.2688 11.503 43.2688H11.6054C11.631 43.2688 11.6566 43.2688 11.6822 43.2688H11.7686C11.8723 43.2688 11.9766 43.2637 12.0816 43.2579L12.2787 43.2459C12.2823 43.2452 12.286 43.2452 12.2896 43.2459C12.3273 43.2459 12.3651 43.2408 12.4022 43.2363C12.671 43.2109 12.9424 43.1727 13.2176 43.125C13.2931 43.1116 13.368 43.097 13.4435 43.0817C13.6714 43.0351 13.9001 42.9806 14.1297 42.9182C14.4375 42.8336 14.7466 42.7356 15.0603 42.6217C15.4592 42.4767 15.8626 42.307 16.2705 42.1128C16.387 42.0587 16.5054 42.0002 16.6219 41.941C16.7384 41.8818 16.8581 41.8214 16.9758 41.7584C17.0072 41.7431 17.0399 41.7272 17.068 41.71C17.7432 41.287 18.3732 40.7968 18.9484 40.2468C21.2098 38.1307 22.3406 35.528 22.3406 32.4385C22.3431 30.1566 21.6352 28.0249 20.2169 26.0433ZM20.9261 0.55414C20.1491 0.185138 19.4568 0.000424141 18.8492 0C18.0558 0.0041238 17.2746 0.193964 16.5688 0.55414C15.6907 0.990582 15.2516 1.54472 15.2516 2.21656V6.47918C16.2717 6.80526 17.2344 7.28759 18.1049 7.90875C18.1241 7.92084 18.1426 7.9342 18.1605 7.94756C18.8124 8.3886 19.4223 8.88799 19.9827 9.43947C20.8057 10.2351 21.5162 11.1381 22.0948 12.1237C22.2228 12.3171 22.3408 12.51 22.4487 12.7026V2.16566C22.4474 1.52818 21.9399 0.991006 20.9261 0.55414ZM4.10235 10.1756C1.83709 12.2585 0.705092 14.744 0.706372 17.632C0.706372 19.6136 1.90557 20.6041 4.30396 20.6037C5.99363 20.6037 7.10877 20.0665 7.64938 18.9922C7.71211 18.7174 7.76544 18.4639 7.80939 18.2319C7.84715 18.0334 7.87787 17.8502 7.90219 17.6829V7.79232C6.53766 8.29323 5.27104 9.08765 4.10235 10.1756ZM6.38277 0.55414C5.6045 0.185138 4.91156 0.000424141 4.30396 0C3.66394 0 2.95457 0.184713 2.17587 0.55414C1.1945 0.990582 0.703812 1.54472 0.703812 2.21656V12.4946C1.29199 11.3907 2.04462 10.3815 2.93623 9.50119C4.39549 8.0379 6.05828 7.01996 7.90475 6.46137V2.16566C7.90305 1.52818 7.39572 0.991006 6.38277 0.55414Z" fill="#fff"/>
<path d="M6.19076 28.8325L6.16516 28.8217C4.81407 28.2605 3.61594 27.3864 2.58421 26.2132C1.89735 27.168 1.39135 28.2393 1.09103 29.3745C1.80018 28.9184 2.7999 28.6111 4.2022 28.6111C5.01864 28.6161 5.82596 28.7822 6.57734 29.0997C7.5457 29.4661 8.19405 29.9834 8.51022 30.6425C8.60494 30.4815 8.71119 30.3174 8.83023 30.1482C8.95367 29.9697 9.08902 29.7997 9.23537 29.6392C8.04428 29.4261 7.02152 29.1557 6.19076 28.8325ZM20.2169 26.0433C18.5955 23.8276 16.4835 22.4339 13.8807 21.8621C13.1498 21.7888 12.4967 21.722 11.9216 21.6617H10.7906C10.7152 21.6614 10.6402 21.6515 10.5673 21.6325C8.0127 22.0002 5.86627 22.9588 4.12795 24.5082C3.92272 24.6914 3.72687 24.8795 3.54041 25.0725C4.69246 26.3521 5.89571 27.2912 7.15016 27.8896C7.80643 28.2063 8.50297 28.4327 9.22065 28.5627C9.98868 28.6293 10.7006 28.687 11.3564 28.7358C11.7673 28.7663 12.1577 28.7918 12.5251 28.8147H15.3527V33.2484C15.3527 33.9203 14.9075 34.5667 14.017 35.1876C13.8103 35.3314 13.61 35.4593 13.4141 35.5693C13.0758 35.7675 12.7131 35.9212 12.335 36.0268H12.3267C12.1071 36.0856 11.8808 36.1163 11.6534 36.1184C11.6432 36.119 11.6329 36.119 11.6227 36.1184C11.606 36.1184 11.5887 36.1184 11.5715 36.1184C11.5615 36.119 11.5514 36.119 11.5414 36.1184C11.5401 36.119 11.5387 36.1193 11.5372 36.1193C11.5358 36.1193 11.5344 36.119 11.5331 36.1184C11.5139 36.1197 11.4946 36.1197 11.4755 36.1184C11.3769 36.1139 11.2796 36.105 11.1836 36.0923C11.1809 36.0929 11.178 36.0929 11.1753 36.0923C10.5685 36.0037 9.95113 35.728 9.32305 35.2652C9.18931 35.1662 9.06111 35.06 8.93904 34.9471C8.39331 34.4437 8.06497 33.8605 7.95403 33.1975C7.81877 32.4926 7.70037 31.8965 7.59882 31.4091C7.49727 30.9218 6.99079 30.5104 6.0794 30.1749C5.41547 29.9437 4.83284 29.8265 4.33148 29.8231H4.3046C1.95144 29.8231 0.753093 30.7774 0.709572 32.686C0.709572 32.7223 0.709572 32.7585 0.709572 32.7961C0.709572 35.5488 1.78247 37.9833 3.92827 40.0998C4.1958 40.3653 4.47015 40.6132 4.75134 40.8435C4.75134 40.8435 4.75134 40.8435 4.75518 40.8435C6.41285 42.2339 8.33101 43.0266 10.5097 43.2217C10.7113 43.2408 10.9142 43.2541 11.1215 43.263C11.1907 43.263 11.2585 43.2675 11.3283 43.2688C11.3865 43.2688 11.4447 43.2688 11.503 43.2688H11.6054C11.631 43.2688 11.6566 43.2688 11.6822 43.2688H11.7686C11.8723 43.2688 11.9766 43.2637 12.0816 43.2579L12.2787 43.2459C12.2823 43.2452 12.286 43.2452 12.2896 43.2459C12.3273 43.2459 12.3651 43.2408 12.4022 43.2363C12.671 43.2109 12.9424 43.1727 13.2176 43.125C13.2931 43.1116 13.368 43.097 13.4435 43.0817C13.6714 43.0351 13.9001 42.9806 14.1297 42.9182C14.4375 42.8336 14.7466 42.7356 15.0603 42.6217C15.4592 42.4767 15.8626 42.307 16.2705 42.1128C16.387 42.0587 16.5054 42.0002 16.6219 41.941C16.7384 41.8818 16.8581 41.8214 16.9758 41.7584C17.0072 41.7431 17.0399 41.7272 17.068 41.71C17.7432 41.287 18.3732 40.7968 18.9484 40.2468C21.2098 38.1307 22.3406 35.528 22.3406 32.4385C22.3431 30.1566 21.6352 28.0249 20.2169 26.0433ZM18.7449 21.8132C18.0647 21.8229 17.3865 21.7389 16.7294 21.5638C18.4761 22.3966 19.9731 23.6582 21.1981 25.3327L21.2051 25.3435C21.6826 26.0061 22.0976 26.711 22.4449 27.4494V20.5783C21.7389 21.2845 20.592 21.8132 18.7449 21.8132ZM21.049 12.7363C20.7038 12.2117 20.3249 11.7098 19.9149 11.2336C19.2087 10.3849 18.4012 9.62473 17.5103 8.96995C17.4885 8.95341 17.4668 8.93878 17.4463 8.92414C16.772 8.43784 16.0346 8.04448 15.2542 7.75479C14.8421 7.60421 14.4182 7.48739 13.9869 7.40551C13.7194 7.35397 13.464 7.31389 13.2119 7.27826C13.1818 7.27317 13.1479 7.26808 13.1197 7.2649C13.0307 7.25154 12.9418 7.24073 12.8522 7.22991C12.7626 7.21909 12.6755 7.20892 12.5872 7.20192C12.2441 7.1682 11.9164 7.15229 11.6054 7.15229H11.503C11.4556 7.15229 11.4095 7.15229 11.3622 7.15229C10.1825 7.17111 9.01428 7.38616 7.90603 7.78851C6.54064 8.28899 5.27403 9.08341 4.1062 10.1718C1.84093 12.2547 0.708933 14.7402 0.710213 17.6282C0.710213 19.6097 1.90941 20.6003 4.3078 20.5999C5.99747 20.5999 7.11262 20.0627 7.65322 18.9884C7.71595 18.7135 7.76928 18.4601 7.81323 18.2281C7.85099 18.0296 7.88171 17.8464 7.90603 17.6791C7.93036 17.5117 7.94636 17.3609 7.95724 17.2242C8.0925 16.4183 8.52345 15.7299 9.25009 15.159C9.96777 14.5945 10.7433 14.3097 11.5766 14.3046C11.5864 14.304 11.5962 14.304 11.606 14.3046C13.0841 14.3046 14.1243 14.9196 14.7268 16.1496C14.9069 16.524 15.0429 16.9179 15.1319 17.3234C15.1806 17.5372 15.2222 17.7624 15.2548 17.9978C15.2644 18.0691 15.2747 18.1416 15.2817 18.2154C15.3303 18.5157 15.3717 18.7725 15.4059 18.9858C15.7762 20.0615 16.8912 20.5991 18.7507 20.5986C21.1495 20.5986 22.3487 19.6076 22.3482 17.6256C22.3606 15.91 21.9121 14.2221 21.049 12.7363Z" fill="#fff"/>
<path d="M21.049 12.7363C20.5224 11.8424 19.8765 11.0233 19.1289 10.3015C18.6301 9.81066 18.0888 9.36503 17.5103 8.96995C17.4885 8.95341 17.4668 8.93878 17.4463 8.92414C16.772 8.43784 16.0346 8.04448 15.2542 7.75479C14.8421 7.60421 14.4182 7.48739 13.9869 7.40551C13.7194 7.35397 13.464 7.31389 13.2119 7.27826C13.1818 7.27317 13.1479 7.26808 13.1197 7.2649C13.0307 7.25154 12.9418 7.24073 12.8522 7.22991C12.7626 7.21909 12.6755 7.20892 12.5872 7.20192C12.2441 7.1682 11.9164 7.15229 11.6054 7.15229H11.503C11.4556 7.15229 11.4095 7.15229 11.3622 7.15229C10.1825 7.17111 9.01428 7.38616 7.90603 7.78851C6.54064 8.28899 5.27403 9.08341 4.1062 10.1718C1.84093 12.2547 0.708933 14.7402 0.710213 17.6282C0.710213 19.6097 1.90941 20.6003 4.3078 20.5999C5.99747 20.5999 7.11262 20.0627 7.65322 18.9884C7.71595 18.7135 7.76928 18.4601 7.81323 18.2281C7.85099 18.0296 7.88171 17.8464 7.90603 17.6791C7.93036 17.5117 7.94636 17.3609 7.95724 17.2242C8.0925 16.4183 8.52345 15.7299 9.25009 15.159C9.96777 14.5945 10.7433 14.3097 11.5766 14.3046C11.5864 14.304 11.5962 14.304 11.606 14.3046C13.0841 14.3046 14.1243 14.9196 14.7268 16.1496C14.9069 16.524 15.0429 16.9179 15.1319 17.3234C15.1806 17.5372 15.2222 17.7624 15.2548 17.9978C15.2644 18.0691 15.2747 18.1416 15.2817 18.2154C15.3303 18.5157 15.3717 18.7725 15.4059 18.9858C15.7762 20.0615 16.8912 20.5991 18.7507 20.5986C21.1495 20.5986 22.3487 19.6076 22.3482 17.6256C22.3606 15.91 21.9121 14.2221 21.049 12.7363ZM20.2169 26.0433C18.5955 23.8276 16.4835 22.4339 13.8807 21.8621C13.1498 21.7888 12.4967 21.722 11.9216 21.6617H10.7906C10.7152 21.6614 10.6402 21.6515 10.5673 21.6325C8.0127 22.0002 5.86627 22.9588 4.12795 24.5082C3.92272 24.6914 3.72687 24.8795 3.54041 25.0725C4.69246 26.3521 5.89571 27.2912 7.15016 27.8896C7.80643 28.2063 8.50297 28.4327 9.22065 28.5627C9.98868 28.6293 10.7006 28.687 11.3564 28.7358C11.7673 28.7663 12.1577 28.7918 12.5251 28.8147H15.3527V33.2484C15.3527 33.9203 14.9075 34.5667 14.017 35.1876C13.8103 35.3314 13.61 35.4593 13.4141 35.5693C13.0758 35.7675 12.7131 35.9212 12.335 36.0268H12.3267C12.1071 36.0856 11.8808 36.1163 11.6534 36.1184C11.6432 36.119 11.6329 36.119 11.6227 36.1184C11.606 36.1184 11.5887 36.1184 11.5715 36.1184C11.5615 36.119 11.5514 36.119 11.5414 36.1184C11.5401 36.119 11.5387 36.1193 11.5372 36.1193C11.5358 36.1193 11.5344 36.119 11.5331 36.1184C11.5139 36.1197 11.4946 36.1197 11.4755 36.1184C11.3769 36.1139 11.2796 36.105 11.1836 36.0923C11.1809 36.0929 11.178 36.0929 11.1753 36.0923C10.5685 36.0037 9.95113 35.728 9.32305 35.2652C9.18931 35.1662 9.06111 35.06 8.93904 34.9471C8.39331 34.4437 8.06497 33.8605 7.95403 33.1975C7.81877 32.4926 7.70037 31.8965 7.59882 31.4091C7.49727 30.9218 6.99079 30.5104 6.0794 30.1749C5.41547 29.9437 4.83284 29.8265 4.33148 29.8231H4.3046C1.95144 29.8231 0.753093 30.7774 0.709572 32.686C0.709572 32.7223 0.709572 32.7585 0.709572 32.7961C0.709572 35.5488 1.78247 37.9833 3.92827 40.0998C4.1958 40.3653 4.47015 40.6132 4.75134 40.8435C4.75134 40.8435 4.75134 40.8435 4.75518 40.8435C6.41285 42.2339 8.33101 43.0266 10.5097 43.2217C10.7113 43.2408 10.9142 43.2541 11.1215 43.263C11.1907 43.263 11.2585 43.2675 11.3283 43.2688C11.3865 43.2688 11.4447 43.2688 11.503 43.2688H11.6054C11.631 43.2688 11.6566 43.2688 11.6822 43.2688H11.7686C11.8723 43.2688 11.9766 43.2637 12.0816 43.2579L12.2787 43.2459C12.2823 43.2452 12.286 43.2452 12.2896 43.2459C12.3273 43.2459 12.3651 43.2408 12.4022 43.2363C12.671 43.2109 12.9424 43.1727 13.2176 43.125C13.2931 43.1116 13.368 43.097 13.4435 43.0817C13.6714 43.0351 13.9001 42.9806 14.1297 42.9182C14.4375 42.8336 14.7466 42.7356 15.0603 42.6217C15.4592 42.4767 15.8626 42.307 16.2705 42.1128C16.387 42.0587 16.5054 42.0002 16.6219 41.941C16.7384 41.8818 16.8581 41.8214 16.9758 41.7584C17.0072 41.7431 17.0399 41.7272 17.068 41.71C17.7432 41.287 18.3732 40.7968 18.9484 40.2468C21.2098 38.1307 22.3406 35.528 22.3406 32.4385C22.3431 30.1566 21.6352 28.0249 20.2169 26.0433Z" fill="white"/>
<path d="M9.18417 20.6584C9.11696 20.6724 9.05168 20.6883 8.98576 20.7042C6.79751 21.2253 4.89919 22.1962 3.31512 23.6073C3.12311 23.7797 2.93495 23.9578 2.75574 24.1391C2.28493 23.5436 1.87278 22.9044 1.52497 22.2305C1.30858 21.8075 1.12956 21.3667 0.989904 20.9129C1.01423 20.9307 1.03983 20.9492 1.06543 20.9657C1.78034 21.4702 2.81526 21.8138 4.30396 21.8138C6.59974 21.8138 7.80747 20.9276 8.44238 20.0254C8.47118 19.9853 8.49806 19.9452 8.52366 19.9058C8.65742 20.0725 8.81423 20.2563 8.99216 20.4536C9.05616 20.5242 9.11952 20.5948 9.18417 20.6584Z" fill="##ffff"/>
</svg>
